<mxfile host="Electron" modified="2024-04-14T00:34:19.302Z" agent="Mozilla/5.0 (Windows NT 10.0; Win64; x64) AppleWebKit/537.36 (KHTML, like Gecko) draw.io/24.1.0 Chrome/120.0.6099.109 Electron/28.1.0 Safari/537.36" etag="boQk1Alinzu1XAvEeORV" version="24.1.0" type="device">
  <diagram name="Page-1" id="xDaVeKamHTBnc9Jzc4uw">
    <mxGraphModel dx="1050" dy="621" grid="1" gridSize="10" guides="1" tooltips="1" connect="1" arrows="1" fold="1" page="1" pageScale="1" pageWidth="827" pageHeight="1169" math="0" shadow="0">
      <root>
        <mxCell id="0" />
        <mxCell id="1" parent="0" />
        <mxCell id="SZKvUdCPTvzaIEL8fsb9-1" value="" style="ellipse;html=1;" vertex="1" parent="1">
          <mxGeometry x="380" y="70" width="30" height="30" as="geometry" />
        </mxCell>
        <mxCell id="SZKvUdCPTvzaIEL8fsb9-2" value="" style="endArrow=open;html=1;rounded=0;align=center;verticalAlign=top;endFill=0;labelBackgroundColor=none;endSize=6;entryX=0.5;entryY=0;entryDx=0;entryDy=0;" edge="1" parent="1" source="SZKvUdCPTvzaIEL8fsb9-1" target="SZKvUdCPTvzaIEL8fsb9-4">
          <mxGeometry relative="1" as="geometry">
            <mxPoint x="395" y="160" as="targetPoint" />
          </mxGeometry>
        </mxCell>
        <mxCell id="SZKvUdCPTvzaIEL8fsb9-3" style="edgeStyle=orthogonalEdgeStyle;rounded=0;orthogonalLoop=1;jettySize=auto;html=1;exitX=0.5;exitY=1;exitDx=0;exitDy=0;entryX=0.5;entryY=0;entryDx=0;entryDy=0;" edge="1" parent="1" source="SZKvUdCPTvzaIEL8fsb9-4" target="SZKvUdCPTvzaIEL8fsb9-6">
          <mxGeometry relative="1" as="geometry">
            <mxPoint x="395" y="300" as="targetPoint" />
          </mxGeometry>
        </mxCell>
        <mxCell id="SZKvUdCPTvzaIEL8fsb9-4" value="Član odabire rezervaciju koju želi otkazati" style="rounded=1;whiteSpace=wrap;html=1;" vertex="1" parent="1">
          <mxGeometry x="327.5" y="170" width="135" height="60" as="geometry" />
        </mxCell>
        <mxCell id="SZKvUdCPTvzaIEL8fsb9-5" style="edgeStyle=orthogonalEdgeStyle;rounded=0;orthogonalLoop=1;jettySize=auto;html=1;exitX=0.5;exitY=1;exitDx=0;exitDy=0;entryX=0.5;entryY=0;entryDx=0;entryDy=0;" edge="1" parent="1" source="SZKvUdCPTvzaIEL8fsb9-6" target="SZKvUdCPTvzaIEL8fsb9-8">
          <mxGeometry relative="1" as="geometry" />
        </mxCell>
        <mxCell id="SZKvUdCPTvzaIEL8fsb9-6" value="Sustav prikazuje detalje odabrane rezervacije" style="rounded=1;whiteSpace=wrap;html=1;" vertex="1" parent="1">
          <mxGeometry x="327.5" y="300" width="135" height="60" as="geometry" />
        </mxCell>
        <mxCell id="SZKvUdCPTvzaIEL8fsb9-8" value="Član odabire opciju &#39;Otkaži&#39;" style="rounded=1;whiteSpace=wrap;html=1;" vertex="1" parent="1">
          <mxGeometry x="327.5" y="430" width="135" height="60" as="geometry" />
        </mxCell>
        <mxCell id="SZKvUdCPTvzaIEL8fsb9-9" style="edgeStyle=orthogonalEdgeStyle;rounded=0;orthogonalLoop=1;jettySize=auto;html=1;exitX=0.5;exitY=1;exitDx=0;exitDy=0;entryX=0.5;entryY=0;entryDx=0;entryDy=0;" edge="1" parent="1" source="SZKvUdCPTvzaIEL8fsb9-8" target="SZKvUdCPTvzaIEL8fsb9-12">
          <mxGeometry relative="1" as="geometry">
            <mxPoint x="395" y="620" as="sourcePoint" />
          </mxGeometry>
        </mxCell>
        <mxCell id="SZKvUdCPTvzaIEL8fsb9-11" style="edgeStyle=orthogonalEdgeStyle;rounded=0;orthogonalLoop=1;jettySize=auto;html=1;exitX=0.5;exitY=1;exitDx=0;exitDy=0;entryX=0.5;entryY=0;entryDx=0;entryDy=0;" edge="1" parent="1" source="SZKvUdCPTvzaIEL8fsb9-12" target="SZKvUdCPTvzaIEL8fsb9-16">
          <mxGeometry relative="1" as="geometry" />
        </mxCell>
        <mxCell id="SZKvUdCPTvzaIEL8fsb9-12" value="Sustav pita za potvrdu o otkazivanju rezervacije" style="rounded=1;whiteSpace=wrap;html=1;" vertex="1" parent="1">
          <mxGeometry x="327.5" y="555" width="135" height="60" as="geometry" />
        </mxCell>
        <mxCell id="SZKvUdCPTvzaIEL8fsb9-13" style="edgeStyle=orthogonalEdgeStyle;rounded=0;orthogonalLoop=1;jettySize=auto;html=1;exitX=1;exitY=0.5;exitDx=0;exitDy=0;" edge="1" parent="1" source="SZKvUdCPTvzaIEL8fsb9-16" target="SZKvUdCPTvzaIEL8fsb9-18">
          <mxGeometry relative="1" as="geometry" />
        </mxCell>
        <mxCell id="SZKvUdCPTvzaIEL8fsb9-14" value="Ne" style="edgeLabel;html=1;align=center;verticalAlign=middle;resizable=0;points=[];" vertex="1" connectable="0" parent="SZKvUdCPTvzaIEL8fsb9-13">
          <mxGeometry x="-0.2053" y="-1" relative="1" as="geometry">
            <mxPoint as="offset" />
          </mxGeometry>
        </mxCell>
        <mxCell id="SZKvUdCPTvzaIEL8fsb9-15" style="edgeStyle=orthogonalEdgeStyle;rounded=0;orthogonalLoop=1;jettySize=auto;html=1;exitX=0.5;exitY=1;exitDx=0;exitDy=0;" edge="1" parent="1" source="SZKvUdCPTvzaIEL8fsb9-16" target="SZKvUdCPTvzaIEL8fsb9-21">
          <mxGeometry relative="1" as="geometry" />
        </mxCell>
        <mxCell id="SZKvUdCPTvzaIEL8fsb9-30" value="Da" style="edgeLabel;html=1;align=center;verticalAlign=middle;resizable=0;points=[];" vertex="1" connectable="0" parent="SZKvUdCPTvzaIEL8fsb9-15">
          <mxGeometry x="-0.175" relative="1" as="geometry">
            <mxPoint as="offset" />
          </mxGeometry>
        </mxCell>
        <mxCell id="SZKvUdCPTvzaIEL8fsb9-16" value="Potvrda otkazivanja?" style="rhombus;whiteSpace=wrap;html=1;" vertex="1" parent="1">
          <mxGeometry x="362.5" y="700" width="65" height="60" as="geometry" />
        </mxCell>
        <mxCell id="SZKvUdCPTvzaIEL8fsb9-17" style="edgeStyle=orthogonalEdgeStyle;rounded=0;orthogonalLoop=1;jettySize=auto;html=1;exitX=0.5;exitY=1;exitDx=0;exitDy=0;" edge="1" parent="1" source="SZKvUdCPTvzaIEL8fsb9-18" target="SZKvUdCPTvzaIEL8fsb9-19">
          <mxGeometry relative="1" as="geometry">
            <Array as="points">
              <mxPoint x="610" y="1135" />
            </Array>
          </mxGeometry>
        </mxCell>
        <mxCell id="SZKvUdCPTvzaIEL8fsb9-18" value="Povratak na prethodni zaslon" style="rounded=1;whiteSpace=wrap;html=1;" vertex="1" parent="1">
          <mxGeometry x="550" y="840" width="120" height="60" as="geometry" />
        </mxCell>
        <mxCell id="SZKvUdCPTvzaIEL8fsb9-19" value="" style="ellipse;html=1;shape=endState;fillColor=strokeColor;" vertex="1" parent="1">
          <mxGeometry x="383.75" y="1120" width="30" height="30" as="geometry" />
        </mxCell>
        <mxCell id="SZKvUdCPTvzaIEL8fsb9-31" style="edgeStyle=orthogonalEdgeStyle;rounded=0;orthogonalLoop=1;jettySize=auto;html=1;exitX=0.5;exitY=1;exitDx=0;exitDy=0;entryX=0.5;entryY=0;entryDx=0;entryDy=0;" edge="1" parent="1" source="SZKvUdCPTvzaIEL8fsb9-21" target="SZKvUdCPTvzaIEL8fsb9-29">
          <mxGeometry relative="1" as="geometry" />
        </mxCell>
        <mxCell id="SZKvUdCPTvzaIEL8fsb9-21" value="Sustav obrađuje zahtjev i ažurira status rezervacije kao &#39;otkazano&#39;" style="rounded=1;whiteSpace=wrap;html=1;" vertex="1" parent="1">
          <mxGeometry x="327.5" y="840" width="142.5" height="60" as="geometry" />
        </mxCell>
        <mxCell id="SZKvUdCPTvzaIEL8fsb9-28" style="edgeStyle=orthogonalEdgeStyle;rounded=0;orthogonalLoop=1;jettySize=auto;html=1;exitX=0.5;exitY=1;exitDx=0;exitDy=0;entryX=0.5;entryY=0;entryDx=0;entryDy=0;" edge="1" parent="1" source="SZKvUdCPTvzaIEL8fsb9-29" target="SZKvUdCPTvzaIEL8fsb9-19">
          <mxGeometry relative="1" as="geometry" />
        </mxCell>
        <mxCell id="SZKvUdCPTvzaIEL8fsb9-29" value="Sustav prikazuje poruku o uspješnom otkazivanju i ažurira pregled rezervacija korisnika" style="rounded=1;whiteSpace=wrap;html=1;" vertex="1" parent="1">
          <mxGeometry x="331.25" y="990" width="135" height="60" as="geometry" />
        </mxCell>
      </root>
    </mxGraphModel>
  </diagram>
</mxfile>
